<?xml version="1.0" standalone="no"?>
<!DOCTYPE svg PUBLIC "-//W3C//DTD SVG 20010904//EN"
 "http://www.w3.org/TR/2001/REC-SVG-20010904/DTD/svg10.dtd">
<svg version="1.0" xmlns="http://www.w3.org/2000/svg"
 width="126.000000pt" height="126.000000pt" viewBox="0 0 126.000000 126.000000"
 preserveAspectRatio="xMidYMid meet">
<metadata>
Created by potrace 1.11, written by Peter Selinger 2001-2013
</metadata>
<g transform="translate(0.000000,126.000000) scale(0.100000,-0.100000)"
fill="#000000" stroke="none">
<path d="M577 1087 c-26 -46 -47 -86 -47 -88 0 -6 189 -3 195 3 6 6 -86 168
-96 168 -3 0 -26 -38 -52 -83z"/>
<path d="M530 962 c0 -9 95 -172 101 -172 5 0 99 164 99 173 0 3 -45 4 -100 4
-55 -1 -100 -3 -100 -5z"/>
<path d="M450 869 c-25 -45 -46 -85 -48 -89 -2 -5 42 -10 98 -12 86 -3 99 -1
95 12 -6 15 -96 170 -98 170 -1 0 -22 -37 -47 -81z"/>
<path d="M707 858 c-25 -45 -44 -84 -42 -86 5 -5 187 -3 192 2 5 5 -87 166
-96 166 -4 0 -28 -37 -54 -82z"/>
<path d="M400 733 c0 -11 93 -173 99 -173 8 1 97 162 94 169 -4 8 -193 12
-193 4z"/>
<path d="M662 730 c11 -29 94 -170 101 -170 4 0 11 8 14 17 4 10 24 47 45 82
21 36 38 69 38 73 0 4 -45 7 -100 6 -56 0 -99 -4 -98 -8z"/>
<path d="M316 634 c-26 -47 -46 -87 -43 -90 5 -5 187 -7 192 -2 4 3 -85 161
-95 172 -3 2 -27 -34 -54 -80z"/>
<path d="M845 638 c-26 -45 -50 -86 -52 -90 -2 -5 41 -8 96 -8 56 0 101 3 101
8 0 4 -22 45 -49 90 l-48 84 -48 -84z"/>
<path d="M270 500 c0 -7 85 -157 95 -168 3 -3 105 166 105 174 0 2 -45 4 -100
3 -55 0 -100 -5 -100 -9z"/>
<path d="M798 505 c-5 -6 72 -149 90 -167 4 -4 31 33 59 82 l52 90 -98 0 c-54
0 -100 -2 -103 -5z"/>
<path d="M183 399 l-52 -89 105 0 106 0 -25 43 c-14 23 -35 60 -47 82 -12 22
-25 43 -28 47 -4 4 -30 -33 -59 -83z"/>
<path d="M992 438 c-16 -29 -40 -70 -52 -90 l-22 -38 106 0 105 0 -50 88 c-28
48 -52 88 -54 90 -1 2 -16 -21 -33 -50z"/>
<path d="M182 190 c27 -50 51 -90 53 -90 3 0 41 66 102 173 2 4 -43 7 -101 7
l-104 0 50 -90z"/>
<path d="M667 263 c6 -16 39 -75 81 -142 14 -24 15 -23 63 60 27 46 49 87 49
92 0 4 -45 7 -100 7 -90 0 -99 -2 -93 -17z"/>
<path d="M931 258 c21 -40 91 -158 94 -158 3 0 19 27 86 148 l19 32 -106 0
-105 0 12 -22z"/>
<path d="M53 172 l-51 -87 54 -3 c30 -2 77 -2 103 0 l49 3 -48 83 c-26 45 -49
85 -52 87 -2 2 -27 -35 -55 -83z"/>
<path d="M623 247 c-15 -18 -93 -155 -93 -161 0 -3 45 -6 100 -6 55 0 100 2
100 5 0 3 -22 43 -49 90 -35 62 -51 82 -58 72z"/>
<path d="M853 194 c-22 -38 -46 -79 -52 -91 l-12 -23 101 0 c55 0 100 3 100 8
0 4 -22 45 -49 91 l-49 84 -39 -69z"/>
<path d="M1103 173 l-50 -88 54 -3 c29 -2 76 -2 102 0 l49 3 -48 83 c-26 45
-50 85 -52 88 -3 2 -28 -35 -55 -83z"/>
</g>
</svg>
